<?xml version="1.0" encoding="iso-8859-1"?>
<!-- Generator: Adobe Illustrator 19.0.0, SVG Export Plug-In . SVG Version: 6.00 Build 0)  -->
<svg version="1.1" id="Layer_1" xmlns="http://www.w3.org/2000/svg" xmlns:xlink="http://www.w3.org/1999/xlink" x="0px" y="0px"
	 viewBox="0 0 512 512" style="enable-background:new 0 0 512 512;" xml:space="preserve">
<circle style="fill:#4AB8A1;" cx="256" cy="256" r="256"/>
<path style="fill:#43A691;" d="M424.592,63.428c-1.336-1.168-2.672-2.316-4.016-3.448c-1.924-1.608-3.852-3.208-5.812-4.752
	c-0.352-0.28-0.72-0.552-1.076-0.832c-2.36-1.844-4.74-3.656-7.152-5.408c-1.976-1.452-3.976-2.86-5.992-4.244
	c-0.288-0.196-0.58-0.404-0.868-0.6c-4.488-3.044-9.064-5.908-13.692-8.632c0,0-0.004-0.004-0.008-0.004
	c-9.5-5.596-19.252-10.576-29.252-14.848c-0.008,0-0.016-0.004-0.024-0.008l-69.568,89.324l-1.852,2.368
	c-2.368-0.296-4.852,0.424-6.664,2.24L256,137.208c-2.604,2.604-3,6.588-1.24,9.648c0.176,0.712,0.452,1.4,0.828,2.048
	c0.176,0.708,0.452,1.392,0.824,2.04c0.176,0.716,0.456,1.408,0.832,2.06c0.176,0.712,0.452,1.4,0.828,2.048
	c0.18,0.712,0.452,1.4,0.828,2.048c0.18,0.712,0.452,1.4,0.828,2.048c0.18,0.712,0.452,1.396,0.828,2.044
	c0.016,0.052,0.032,0.104,0.048,0.156l-66.828,38.084l-11.184,48.596l-0.652,2.836l-1.692,7.348l-3.38,14.696l-13.54,58.836
	c-3.292-0.18-6.636,0.936-9.152,3.448c-3.688,3.688-4.428,9.164-2.308,13.62l0.076-0.08c0.192,0.728,0.424,1.44,0.752,2.124
	l0.076-0.08c0.192,0.728,0.424,1.444,0.752,2.124l0.076-0.076c0.192,0.724,0.424,1.44,0.752,2.124l0.076-0.076
	c0.192,0.72,0.424,1.436,0.752,2.12l0.076-0.076c0.192,0.724,0.424,1.436,0.752,2.124l0.076-0.08
	c0.192,0.724,0.424,1.436,0.752,2.124l0.076-0.08c0.192,0.728,0.424,1.44,0.752,2.124l0.076-0.08
	c0.192,0.728,0.424,1.44,0.752,2.128l0.076-0.076c0.192,0.724,0.424,1.436,0.752,2.124l0.076-0.08
	c0.192,0.728,0.424,1.44,0.752,2.124l0.076-0.08c0.188,0.728,0.424,1.436,0.752,2.124l0.076-0.08
	c0.192,0.728,0.424,1.444,0.752,2.124l0.076-0.076c0.192,0.724,0.424,1.44,0.752,2.124l0.076-0.08
	c0.192,0.724,0.424,1.44,0.752,2.124l0.076-0.076c0.192,0.724,0.424,1.436,0.752,2.124l0.076-0.08
	c0.192,0.724,0.424,1.436,0.752,2.124l0.076-0.08c0.192,0.728,0.424,1.44,0.752,2.124l0.076-0.08
	c0.192,0.728,0.424,1.44,0.752,2.124l0.076-0.076c0.192,0.724,0.424,1.44,0.752,2.12l0.076-0.076
	c0.192,0.724,0.424,1.44,0.752,2.124l0.076-0.076c0.192,0.72,0.424,1.436,0.752,2.12l0.076-0.076
	c0.192,0.724,0.424,1.436,0.752,2.124l0.076-0.08c0.192,0.728,0.424,1.436,0.752,2.124l0.076-0.08
	c0.192,0.728,0.424,1.44,0.752,2.124l0.076-0.08c0.188,0.728,0.424,1.44,0.752,2.124l0.076-0.076c0.192,0.724,0.424,1.44,0.752,2.12
	l0.076-0.076c0.192,0.724,0.424,1.44,0.752,2.124l0.076-0.076c0.192,0.724,0.424,1.436,0.752,2.12l0.076-0.076
	c0.192,0.724,0.424,1.436,0.752,2.124l0.076-0.076c0.192,0.724,0.424,1.44,0.752,2.124l0.076-0.076
	c0.192,0.72,0.424,1.436,0.752,2.12l0.076-0.076c0.192,0.724,0.424,1.436,0.752,2.124l0.076-0.08
	c0.192,0.724,0.424,1.436,0.752,2.124l0.076-0.08c0.192,0.728,0.424,1.44,0.752,2.124l0.076-0.08
	c0.192,0.728,0.424,1.44,0.752,2.124l0.076-0.076c0.192,0.724,0.424,1.44,0.752,2.12l0.076-0.076
	c0.192,0.724,0.424,1.44,0.752,2.124l0.076-0.076c0.192,0.72,0.424,1.436,0.752,2.12l0.076-0.076
	c0.192,0.724,0.424,1.436,0.752,2.124l0.076-0.08c0.192,0.724,0.424,1.436,0.752,2.124l0.076-0.08
	c0.192,0.728,0.424,1.44,0.752,2.124l0.076-0.08c0.192,0.728,0.424,1.44,0.752,2.124l0.076-0.076c0.192,0.724,0.424,1.44,0.752,2.12
	l0.076-0.076c0.192,0.724,0.424,1.44,0.752,2.124l0.076-0.076c0.192,0.72,0.424,1.436,0.752,2.12l0.076-0.076
	c0.192,0.724,0.424,1.436,0.752,2.124l0.076-0.08c0.192,0.724,0.424,1.436,0.752,2.124l0.076-0.08
	c0.192,0.728,0.424,1.44,0.752,2.124l0.076-0.08c0.192,0.728,0.424,1.44,0.752,2.128l0.076-0.076
	c0.192,0.724,0.424,1.436,0.752,2.124l0.076-0.08c0.192,0.728,0.424,1.44,0.752,2.124l0.076-0.08
	c0.192,0.728,0.424,1.44,0.752,2.124l0.076-0.08c0.192,0.728,0.424,1.444,0.752,2.124l0.076-0.076
	c0.188,0.724,0.424,1.44,0.752,2.12l0.076-0.076c0.192,0.724,0.424,1.44,0.752,2.124l0.076-0.076
	c0.192,0.724,0.424,1.436,0.752,2.124l0.076-0.08c0.192,0.724,0.424,1.436,0.752,2.124l0.076-0.08
	c0.192,0.728,0.424,1.44,0.752,2.124l0.076-0.08c0.192,0.728,0.424,1.44,0.752,2.128l0.076-0.076
	c0.192,0.724,0.424,1.436,0.752,2.124l0.076-0.08c0.192,0.728,0.424,1.436,0.752,2.124l0.076-0.08
	c0.192,0.728,0.424,1.44,0.752,2.124l0.076-0.08c0.192,0.728,0.424,1.44,0.752,2.124l0.076-0.076c0.192,0.724,0.424,1.44,0.752,2.12
	l0.076-0.076c0.192,0.724,0.424,1.44,0.752,2.124l0.076-0.076c0.192,0.724,0.424,1.436,0.752,2.12l0.076-0.076
	c0.192,0.724,0.424,1.436,0.752,2.124l0.076-0.08c0.192,0.728,0.424,1.436,0.752,2.128l0.076-0.076
	c0.188,0.72,0.424,1.432,0.752,2.12l0.076-0.076c0.192,0.724,0.424,1.436,0.752,2.124l0.076-0.08
	c0.192,0.724,0.424,1.436,0.752,2.124l0.076-0.08c0.192,0.728,0.424,1.44,0.752,2.124l0.076-0.08
	c0.192,0.728,0.424,1.44,0.752,2.124l0.076-0.076c0.192,0.724,0.424,1.44,0.752,2.12l0.076-0.076
	c0.192,0.724,0.424,1.44,0.752,2.124l0.076-0.076c0.192,0.724,0.424,1.436,0.752,2.12l0.076-0.076
	c0.192,0.724,0.424,1.436,0.752,2.124l0.076-0.08c0.192,0.728,0.424,1.436,0.752,2.128l0.076-0.08
	c0.032,0.12,0.092,0.24,0.128,0.356C294.576,520.7,377,496.764,437.032,436.732c71.308-71.308,91.712-174.208,61.296-263.636
	c-0.152-0.3-0.3-0.6-0.444-0.904l0.124-0.096c-0.008-0.02-0.012-0.044-0.02-0.068c-0.296-0.632-0.628-1.252-0.924-1.888l0.128-0.1
	c-0.3-0.656-0.644-1.296-0.956-1.944l0.128-0.104c-0.3-0.656-0.644-1.296-0.956-1.948l0.128-0.1c-0.3-0.656-0.644-1.296-0.956-1.948
	l0.128-0.1c-0.3-0.656-0.644-1.296-0.956-1.948l0.132-0.104c-0.304-0.656-0.648-1.296-0.96-1.948l0.132-0.1
	c-0.304-0.656-0.648-1.296-0.96-1.948l0.132-0.1c-0.304-0.656-0.648-1.296-0.96-1.948l0.132-0.1
	c-0.304-0.656-0.648-1.296-0.96-1.948l0.132-0.1c-0.304-0.656-0.648-1.296-0.96-1.944l0.132-0.104
	c-0.304-0.656-0.648-1.296-0.96-1.948l0.132-0.1c-0.304-0.656-0.648-1.296-0.96-1.948l0.132-0.1c-0.124-0.268-0.268-0.532-0.4-0.8
	c-1.224-2.6-2.512-5.18-3.832-7.748c-1.148-2.236-2.348-4.448-3.568-6.66c-0.256-0.468-0.516-0.928-0.78-1.396
	c-3.788-6.784-7.92-13.428-12.376-19.92c-0.784-1.14-1.572-2.28-2.376-3.408c-1.18-1.66-2.36-3.308-3.584-4.944
	c-1.956-2.612-3.94-5.204-6.008-7.756c-0.752-0.94-1.56-1.856-2.332-2.788c-1.764-2.12-3.564-4.228-5.416-6.304
	c-0.804-0.908-1.608-1.808-2.428-2.708c-2.584-2.832-5.228-5.636-7.964-8.376c-2.74-2.736-5.536-5.364-8.364-7.952
	C427.316,65.808,425.952,64.62,424.592,63.428z"/>
<path style="fill:#242424;" d="M261.58,142.784l101.984,101.98l124.508-96.976c-12.288-26.356-29.296-51.056-51.048-72.808
	c-23.804-23.8-51.148-41.868-80.312-54.332L261.58,142.784z"/>
<g>
	<path style="fill:#1A1A1A;" d="M479.9,131.872l-127.656,101.58l11.312,11.312l124.516-96.976
		C485.564,142.404,482.8,137.108,479.9,131.872z"/>
	<polygon style="fill:#1A1A1A;" points="398.54,217.52 288.824,107.804 283.868,114.164 392.176,222.472 	"/>
</g>
<path style="fill:#FFD464;" d="M306.916,312.572l45.328-79.116l-39.596-39.6l-39.596-39.596l-79.276,45.172l-30.448,132.312
	c-3.292-0.18-6.636,0.94-9.152,3.452c-3.688,3.688-4.428,9.164-2.308,13.62l110.08-110.072c-5.152-7.768-4.304-18.324,2.544-25.172
	c7.804-7.804,20.464-7.816,28.284,0c7.812,7.816,7.804,20.48,0,28.284c-6.852,6.848-17.408,7.696-25.172,2.544l-110.08,110.076
	c4.46,2.116,9.932,1.38,13.624-2.312c2.468-2.468,3.6-5.752,3.468-8.984L306.916,312.572z"/>
<g>
	<path style="fill:#F2C95F;" d="M306.916,312.572l45.328-79.116l-5.656-5.66l-45.336,79.12l-125.116,28.952l-18.608,18.608
		c4.46,2.116,9.932,1.38,13.624-2.312c2.468-2.468,3.6-5.752,3.468-8.984L306.916,312.572z"/>
	<path style="fill:#F2C95F;" d="M264.484,213.576c6.836-6.836,17.4-7.692,25.172-2.544c-0.728-1.096-1.58-2.144-2.548-3.112
		c-7.812-7.82-20.476-7.804-28.28,0c-6.848,6.844-7.692,17.404-2.544,25.168l-91.252,91.256l-1.704,7.4
		c-3.292-0.18-6.636,0.94-9.152,3.452c-3.688,3.688-4.428,9.164-2.308,13.62l110.08-110.072
		C256.792,230.976,257.636,220.42,264.484,213.576z"/>
	<polygon style="fill:#F2C95F;" points="348.124,240.644 265.84,158.36 262.244,160.416 346.064,244.24 	"/>
</g>
<path style="fill:#E6E6E6;" d="M369.136,250.344c-3.112,3.112-8.208,3.112-11.316,0L256,148.52c-3.112-3.112-3.112-8.2,0-11.312
	l22.628-22.628c3.112-3.112,8.2-3.112,11.316,0l101.82,101.824c3.116,3.112,3.116,8.204,0,11.316L369.136,250.344z"/>
<path style="fill:#CCCCCC;" d="M391.764,216.404l-11.312-11.316c3.108,3.112,3.108,8.204,0,11.316l-22.628,22.628
	c-3.112,3.112-8.2,3.112-11.312,0l11.312,11.316c3.112,3.112,8.204,3.112,11.316,0l22.624-22.628
	C394.876,224.604,394.876,219.512,391.764,216.404z"/>
<g>
</g>
<g>
</g>
<g>
</g>
<g>
</g>
<g>
</g>
<g>
</g>
<g>
</g>
<g>
</g>
<g>
</g>
<g>
</g>
<g>
</g>
<g>
</g>
<g>
</g>
<g>
</g>
<g>
</g>
</svg>
