<svg width="21" height="24" viewBox="0 0 21 24" fill="none" xmlns="http://www.w3.org/2000/svg">
<path d="M10.5 0C13.4006 0 15.75 2.38667 15.75 5.33333C15.75 8.28 13.4006 10.6667 10.5 10.6667C7.59937 10.6667 5.25 8.28 5.25 5.33333C5.25 2.38667 7.59937 0 10.5 0ZM15.75 14.0533C15.75 15.4667 15.3825 18.76 12.8756 22.44L11.8125 16L13.0462 13.4933C12.2325 13.4 11.3794 13.3333 10.5 13.3333C9.62062 13.3333 8.7675 13.4 7.95375 13.4933L9.1875 16L8.12437 22.44C5.6175 18.76 5.25 15.4667 5.25 14.0533C2.11312 14.9867 0 16.6667 0 18.6667V24H21V18.6667C21 16.6667 18.9 14.9867 15.75 14.0533Z" fill="#8B8B8B"/>
</svg>
