<svg width="16" height="18" viewBox="0 0 16 18" fill="none" xmlns="http://www.w3.org/2000/svg">
<path d="M8 18C6.9 18 5.89167 17.725 4.975 17.175C4.05833 16.625 3.33333 15.9 2.8 15H0V13H2.1C2.05 12.6167 2.021 12.2873 2.013 12.012C2.00433 11.7373 2 11.4 2 11H0V9H2C2 8.55 2.00433 8.179 2.013 7.887C2.021 7.59567 2.05 7.3 2.1 7H0V5H2.8C3.03333 4.6 3.296 4.23733 3.588 3.912C3.87933 3.58733 4.21667 3.3 4.6 3.05L3 1.4L4.4 0L6.55 2.15C6.93333 2.01667 7.40833 1.95 7.975 1.95C8.54167 1.95 9.01667 2.01667 9.4 2.15L11.6 0L13 1.4L11.35 3.05C11.7333 3.3 12.0793 3.58733 12.388 3.912C12.696 4.23733 12.9667 4.6 13.2 5H16V7H13.9C13.95 7.38333 13.9793 7.7 13.988 7.95C13.996 8.2 14 8.55 14 9H16V11H14C14 11.4 13.996 11.7373 13.988 12.012C13.9793 12.2873 13.95 12.6167 13.9 13H16V15H13.2C12.6667 15.9 11.9417 16.625 11.025 17.175C10.1083 17.725 9.1 18 8 18ZM6 13H10V11H6V13ZM6 9H10V7H6V9Z" fill="white"/>
</svg>
