<svg width="20" height="20" viewBox="0 0 20 20" fill="none" xmlns="http://www.w3.org/2000/svg">
<path fill-rule="evenodd" clip-rule="evenodd" d="M20 10C20 15.5228 15.5228 20 10 20C4.47715 20 0 15.5228 0 10C0 4.47715 4.47715 0 10 0C15.5228 0 20 4.47715 20 10ZM13.7505 9.03014L6.79054 16H4V13.2055L10.9599 6.23562L13.7505 9.03014ZM11.912 5.29863L14.7025 8.06027L15.6382 7.12329C15.8899 6.87123 16.0103 6.56723 15.9993 6.21129C15.9884 5.8549 15.8571 5.55069 15.6054 5.29863L14.6861 4.37808C14.4344 4.12603 14.1254 4 13.759 4C13.3922 4 13.0829 4.12603 12.8312 4.37808L11.912 5.29863Z" fill="#34af40"/>
</svg>
