<svg width="19" height="24" viewBox="0 0 19 24" fill="none" xmlns="http://www.w3.org/2000/svg">
<path d="M9.5 11.4C8.60016 11.4 7.73717 11.0839 7.10089 10.5213C6.4646 9.95871 6.10714 9.19565 6.10714 8.4C6.10714 7.60435 6.4646 6.84129 7.10089 6.27868C7.73717 5.71607 8.60016 5.4 9.5 5.4C10.3998 5.4 11.2628 5.71607 11.8991 6.27868C12.5354 6.84129 12.8929 7.60435 12.8929 8.4C12.8929 8.79397 12.8051 9.18407 12.6346 9.54805C12.4641 9.91203 12.2142 10.2427 11.8991 10.5213C11.5841 10.7999 11.21 11.0209 10.7984 11.1716C10.3868 11.3224 9.94556 11.4 9.5 11.4ZM9.5 0C6.98044 0 4.56408 0.884997 2.78249 2.4603C1.00089 4.03561 0 6.17218 0 8.4C0 14.7 9.5 24 9.5 24C9.5 24 19 14.7 19 8.4C19 6.17218 17.9991 4.03561 16.2175 2.4603C14.4359 0.884997 12.0196 0 9.5 0Z" fill="#8B8B8B"/>
</svg>
