<svg width="20" height="24" viewBox="0 0 20 24" fill="none" xmlns="http://www.w3.org/2000/svg">
<path d="M0 20.4V18H2.5V9.6C2.5 7.94 3.02083 6.4648 4.0625 5.1744C5.10417 3.8848 6.45833 3.04 8.125 2.64V1.8C8.125 1.3 8.3075 0.8752 8.6725 0.5256C9.03667 0.1752 9.47917 0 10 0C10.5208 0 10.9633 0.1752 11.3275 0.5256C11.6925 0.8752 11.875 1.3 11.875 1.8V2.64C13.5417 3.04 14.8958 3.8848 15.9375 5.1744C16.9792 6.4648 17.5 7.94 17.5 9.6V18H20V20.4H0ZM10 24C9.3125 24 8.72417 23.7652 8.235 23.2956C7.745 22.8252 7.5 22.26 7.5 21.6H12.5C12.5 22.26 12.2554 22.8252 11.7663 23.2956C11.2763 23.7652 10.6875 24 10 24Z" fill="#8B8B8B"/>
</svg>
