<svg width="639" height="270" viewBox="0 0 639 270" fill="none" xmlns="http://www.w3.org/2000/svg">
<path d="M0 210.7V222.4V234.1V245.8V257.5V269.8H51.6V257.5V245.8V234.1V222.4V210.7V187.3H0V210.7Z" fill="white"/>
<path d="M51.6 93.7V70.3H0V93.7V105.4H51.6V93.7Z" fill="white"/>
<path d="M51.6 163.9V152.2V140.5V117.1H0V140.5V152.2V163.9V175.6H51.6V163.9Z" fill="white"/>
<path d="M116.8 163.9V152.2V140.5V117.1H65.2V140.5V152.2V163.9V175.6H116.8V163.9Z" fill="white"/>
<path d="M116.8 210.7V187.3H65.2V210.7V222.4H116.8V210.7Z" fill="white"/>
<path d="M116.8 93.7V82V70.3V46.9H65.2V70.3V82V93.7V105.4H116.8V93.7Z" fill="white"/>
<path d="M116.8 23.4V0H65.2V23.4V35.2H116.8V23.4Z" fill="white"/>
<path d="M182 187.3H130.4V199H182V187.3Z" fill="white"/>
<path d="M182 257.5V245.8V234.1V210.7H130.4V234.1V245.8V257.5V269.8H182V257.5Z" fill="white"/>
<path d="M247.2 117.1H195.6V128.8H247.2V117.1Z" fill="white"/>
<path d="M247.2 257.5V245.8V234.1V222.4V210.7V187.3H195.6V210.7V222.4V234.1V245.8V257.5V269.8H247.2V257.5Z" fill="white"/>
<path d="M247.2 163.9V140.5H195.6V163.9V175.6H247.2V163.9Z" fill="white"/>
<path d="M312.4 117.1V93.7H260.8V117.1V128.8H312.4V117.1Z" fill="white"/>
<path d="M312.4 23.4H260.8V35.1H312.4V23.4Z" fill="white"/>
<path d="M312.4 70.3V46.9H260.8V70.3V82H312.4V70.3Z" fill="white"/>
<path d="M312.4 187.3V175.6V163.9V140.5H260.8V163.9V175.6V187.3V199H312.4V187.3Z" fill="white"/>
<path d="M312.4 257.5V245.8V234.1V210.7H260.8V234.1V245.8V257.5V269.8H312.4V257.5Z" fill="white"/>
<path d="M116.8 257.5V234.1H65.2V257.5V269.8H116.8V257.5Z" fill="white"/>
<path d="M442.6 257.5V234.1H391V257.5V269.8H442.6V257.5Z" fill="white"/>
<path d="M0 210.7V222.4V234.1V245.8V257.5V269.8H51.6V257.5V245.8V234.1V222.4V210.7V187.3H0V210.7Z" fill="white"/>
<path d="M51.6 93.7V70.3H0V93.7V105.4H51.6V93.7Z" fill="white"/>
<path d="M51.6 163.9V152.2V140.5V117.1H0V140.5V152.2V163.9V175.6H51.6V163.9Z" fill="white"/>
<path d="M116.8 163.9V152.2V140.5V117.1H65.2V140.5V152.2V163.9V175.6H116.8V163.9Z" fill="white"/>
<path d="M116.8 210.7V187.3H65.2V210.7V222.4H116.8V210.7Z" fill="white"/>
<path d="M116.8 93.7V82V70.3V46.9H65.2V70.3V82V93.7V105.4H116.8V93.7Z" fill="white"/>
<path d="M116.8 23.4V0H65.2V23.4V35.2H116.8V23.4Z" fill="white"/>
<path d="M182 187.3H130.4V199H182V187.3Z" fill="white"/>
<path d="M182 257.5V245.8V234.1V210.7H130.4V234.1V245.8V257.5V269.8H182V257.5Z" fill="white"/>
<path d="M247.2 117.1H195.6V128.8H247.2V117.1Z" fill="white"/>
<path d="M247.2 257.5V245.8V234.1V222.4V210.7V187.3H195.6V210.7V222.4V234.1V245.8V257.5V269.8H247.2V257.5Z" fill="white"/>
<path d="M247.2 163.9V140.5H195.6V163.9V175.6H247.2V163.9Z" fill="white"/>
<path d="M312.4 117.1V93.7H260.8V117.1V128.8H312.4V117.1Z" fill="white"/>
<path d="M312.4 23.4H260.8V35.1H312.4V23.4Z" fill="white"/>
<path d="M312.4 70.3V46.9H260.8V70.3V82H312.4V70.3Z" fill="white"/>
<path d="M312.4 187.3V175.6V163.9V140.5H260.8V163.9V175.6V187.3V199H312.4V187.3Z" fill="white"/>
<path d="M312.4 257.5V245.8V234.1V210.7H260.8V234.1V245.8V257.5V269.8H312.4V257.5Z" fill="white"/>
<path d="M326 210.7V222.4V234.1V245.8V257.5V269.8H377.6V257.5V245.8V234.1V222.4V210.7V187.3H326V210.7Z" fill="white"/>
<path d="M377.6 93.7V70.3H326V93.7V105.4H377.6V93.7Z" fill="white"/>
<path d="M377.6 163.9V152.2V140.5V117.1H326V140.5V152.2V163.9V175.6H377.6V163.9Z" fill="white"/>
<path d="M442.8 163.9V152.2V140.5V117.1H391.2V140.5V152.2V163.9V175.6H442.8V163.9Z" fill="white"/>
<path d="M442.8 210.7V187.3H391.2V210.7V222.4H442.8V210.7Z" fill="white"/>
<path d="M442.8 93.7V82V70.3V46.9H391.2V70.3V82V93.7V105.4H442.8V93.7Z" fill="white"/>
<path d="M442.8 23.4V0H391.2V23.4V35.2H442.8V23.4Z" fill="white"/>
<path d="M508 187.3H456.4V199H508V187.3Z" fill="white"/>
<path d="M508 257.5V245.8V234.1V210.7H456.4V234.1V245.8V257.5V269.8H508V257.5Z" fill="white"/>
<path d="M573.2 117.1H521.6V128.8H573.2V117.1Z" fill="white"/>
<path d="M573.2 257.5V245.8V234.1V222.4V210.7V187.3H521.6V210.7V222.4V234.1V245.8V257.5V269.8H573.2V257.5Z" fill="white"/>
<path d="M573.2 163.9V140.5H521.6V163.9V175.6H573.2V163.9Z" fill="white"/>
<path d="M638.4 117.1V93.7H586.8V117.1V128.8H638.4V117.1Z" fill="white"/>
<path d="M638.4 23.4H586.8V35.1H638.4V23.4Z" fill="white"/>
<path d="M638.4 70.3V46.9H586.8V70.3V82H638.4V70.3Z" fill="white"/>
<path d="M638.4 187.3V175.6V163.9V140.5H586.8V163.9V175.6V187.3V199H638.4V187.3Z" fill="white"/>
<path d="M638.4 257.5V245.8V234.1V210.7H586.8V234.1V245.8V257.5V269.8H638.4V257.5Z" fill="white"/>
</svg>
