<svg width="15" height="15" viewBox="0 0 15 15" fill="none" xmlns="http://www.w3.org/2000/svg">
<path d="M11.387 5.77893L14.499 3.81808C15.0114 3.49684 15.13 2.87104 14.7647 2.42046C14.3994 1.96989 13.6878 1.86559 13.1755 2.18683L10.7371 3.72213L11.0265 1.09794C11.0882 0.547234 10.628 0.0591099 10.0018 0.00487388C9.37563 -0.0493622 8.82059 0.355322 8.75892 0.906026L8.3889 4.25615C7.8054 4.29787 7.24088 4.48978 6.77124 4.81102L6.07389 4.4564L6.39647 3.622C6.59572 3.09633 6.27788 2.52894 5.68489 2.35371C5.09191 2.17849 4.44199 2.45801 4.24275 2.97951L3.6213 4.58991C3.44578 5.04048 3.65926 5.54112 4.1289 5.77893L5.44295 6.44645L4.88792 7.28919L3.10897 6.84279C2.66304 6.73014 2.18391 6.86782 1.89928 7.18906L0.243664 9.0456C-0.145334 9.47949 -0.0599443 10.1095 0.438163 10.4516C0.93627 10.7937 1.64785 10.7186 2.03685 10.2805L3.22282 8.95382L4.0862 9.17077C4.06249 10.1136 4.60803 11.0357 5.60425 11.5405C6.60046 12.0453 7.78168 11.9994 8.69725 11.5113L9.34242 12.062L8.62609 13.6265C8.39364 14.1396 8.67353 14.7237 9.25703 14.9281C9.84053 15.1326 10.5047 14.8864 10.7371 14.3733L11.7428 12.183C11.9136 11.8033 11.8092 11.3736 11.4772 11.0899L10.1489 9.95927L10.6992 9.1207L12.0132 9.78822C12.4829 10.026 13.0806 9.94259 13.4364 9.58379L14.7172 8.30299C15.13 7.88579 15.0873 7.25582 14.6129 6.88868C14.1385 6.52154 13.4222 6.56326 13.0047 6.98046L12.3453 7.64381L11.6479 7.28919C11.7286 6.77186 11.6385 6.24619 11.387 5.77893Z" fill="white"/>
</svg>
