<svg width="400" height="200" viewBox="0 0 400 200" fill="none" xmlns="http://www.w3.org/2000/svg">
<rect y="137.143" width="33.9806" height="62.8571" fill="white"/>
<rect y="86.8572" width="33.9806" height="43.4286" fill="white"/>
<rect y="51.4286" width="33.9806" height="28.5714" fill="white"/>
<rect x="42.7185" y="3.42859" width="32.0388" height="25.1429" fill="white"/>
<rect x="41.7476" y="35.4286" width="33.0097" height="45.7143" fill="white"/>
<rect x="41.7476" y="88" width="33.0097" height="43.4286" fill="white"/>
<rect x="41.7476" y="138.286" width="33.0097" height="28.5714" fill="white"/>
<rect x="41.7476" y="173.714" width="33.0097" height="26.2857" fill="white"/>
<rect x="82.5242" y="137.143" width="33.0097" height="10.2857" fill="white"/>
<rect x="82.5242" y="155.429" width="33.0097" height="44.5714" fill="white"/>
<rect x="123.301" y="85.7142" width="33.0097" height="11.4286" fill="white"/>
<rect x="123.301" y="104" width="33.0097" height="26.2857" fill="white"/>
<rect x="123.301" y="137.143" width="33.0097" height="62.8571" fill="white"/>
<rect x="165.048" y="155.429" width="32.0388" height="44.5714" fill="white"/>
<rect x="164.078" y="104" width="33.0097" height="44.5714" fill="white"/>
<rect x="164.078" y="69.7142" width="33.0097" height="27.4286" fill="white"/>
<rect x="164.078" y="34.2858" width="33.0097" height="28.5714" fill="white"/>
<rect x="82.5242" y="137.143" width="33.0097" height="11.4286" fill="white"/>
<rect x="164.078" y="155.429" width="33.0097" height="44.5714" fill="white"/>
<rect x="164.078" y="17.1428" width="33.0097" height="11.4286" fill="white"/>
<rect x="204.854" y="137.143" width="33.9806" height="62.8571" fill="white"/>
<rect x="204.854" y="85.7142" width="33.9806" height="44.5714" fill="white"/>
<rect x="204.854" y="48" width="33.9806" height="30.8571" fill="white"/>
<rect x="246.602" y="171.429" width="33.9806" height="28.5714" fill="white"/>
<rect x="246.602" y="134.857" width="33.9806" height="29.7143" fill="white"/>
<rect x="246.602" y="83.4286" width="33.9806" height="44.5714" fill="white"/>
<rect x="246.602" y="34.2858" width="33.9806" height="42.2857" fill="white"/>
<rect x="246.602" width="33.9806" height="27.4286" fill="white"/>
<rect x="288.35" y="153.143" width="32.0388" height="46.8571" fill="white"/>
<rect x="288.35" y="137.143" width="32.0388" height="9.14286" fill="white"/>
<rect x="328.155" y="137.143" width="33.0097" height="62.8571" fill="white"/>
<rect x="328.155" y="104" width="33.0097" height="26.2857" fill="white"/>
<rect x="328.155" y="85.7142" width="33.0097" height="9.14286" fill="white"/>
<rect x="368.932" y="153.143" width="31.068" height="46.8571" fill="white"/>
<rect x="368.932" y="104" width="31.068" height="42.2857" fill="white"/>
<rect x="368.932" y="68.5714" width="31.068" height="28.5714" fill="white"/>
<rect x="368.932" y="34.2858" width="31.068" height="27.4286" fill="white"/>
<rect x="368.932" y="19.4286" width="31.068" height="8" fill="white"/>
</svg>
