<svg width="15" height="20" viewBox="0 0 15 20" fill="none" xmlns="http://www.w3.org/2000/svg">
<path d="M7.50029 0C5.51109 0 3.60336 0.707832 2.19678 1.96778C0.790206 3.22773 0 4.93659 0 6.71842C0 11.9763 5.72612 18.3035 7.22663 19.8578C7.30717 19.9405 7.421 19.9913 7.54321 19.999C7.66542 20.0067 7.78606 19.9707 7.87871 19.8989L7.92451 19.8578C9.40498 18.2973 15 11.9763 15 6.71791C14.9998 4.93625 14.2097 3.2276 12.8032 1.96778C11.3968 0.707958 9.48929 0.000135989 7.50029 0ZM7.50029 8.54149C6.99721 8.54149 6.50543 8.40786 6.08713 8.1575C5.66884 7.90714 5.34282 7.5513 5.1503 7.13497C4.95778 6.71864 4.90741 6.26051 5.00556 5.81854C5.1037 5.37656 5.34596 4.97058 5.70169 4.65194C6.05742 4.33329 6.51064 4.11629 7.00405 4.02837C7.49746 3.94046 8.0089 3.98558 8.47368 4.15803C8.93846 4.33048 9.33572 4.62251 9.61522 4.9972C9.89471 5.37189 10.0439 5.81241 10.0439 6.26304V6.26868C10.0422 6.87199 9.7735 7.45007 9.29666 7.87614C8.81983 8.30222 8.1738 8.54149 7.50029 8.54149Z" fill="#878787"/>
</svg>
