<svg width="43" height="42" viewBox="0 0 43 42" fill="none" xmlns="http://www.w3.org/2000/svg">
<path d="M28.4079 1H6C3.23858 1 1 3.23858 1 6V35.5361C1 36.3386 1.19316 37.1293 1.56316 37.8414L1.80418 38.3053C2.66448 39.961 4.37513 41 6.24102 41H28.4079C30.2605 41 31.9613 39.9757 32.8276 38.3381L40.7631 23.3381C41.5369 21.8754 41.5369 20.1246 40.7631 18.6619L32.8276 3.66187C31.9613 2.02433 30.2605 1 28.4079 1Z" stroke="white" stroke-width="2"/>
<path d="M33.946 20.394C33.946 21.8791 33.5067 23.1831 32.8461 24.0912C32.1847 25.0004 31.3561 25.4546 30.5374 25.4546C29.7187 25.4546 28.89 25.0004 28.2287 24.0912C27.5681 23.1831 27.1288 21.8791 27.1288 20.394C27.1288 18.9088 27.5681 17.6049 28.2287 16.6967C28.89 15.7876 29.7187 15.3334 30.5374 15.3334C31.3561 15.3334 32.1847 15.7876 32.8461 16.6967C33.5067 17.6049 33.946 18.9088 33.946 20.394Z" stroke="white" stroke-width="2"/>
</svg>
