<svg width="50" height="50" viewBox="0 0 50 50" fill="none" xmlns="http://www.w3.org/2000/svg">
<path d="M39.9987 8.69987e-07C40.4314 -0.000415786 40.8509 0.148839 41.186 0.422451L41.3735 0.597431L49.5551 9.42139L49.63 9.51638C49.885 9.85634 50 10.2413 50 10.6163L49.995 15.4157C49.995 17.9004 49.0501 20.1651 47.4953 21.8649V48.1193C47.4953 48.5724 47.3312 49.0101 47.0334 49.3515C46.7357 49.693 46.3243 49.915 45.8755 49.9766L45.6205 49.9941H4.38286C3.92939 49.9947 3.49108 49.8309 3.14912 49.5331C2.80717 49.2353 2.58475 48.8236 2.52308 48.3743L2.50808 48.1193L2.50308 21.8674C1.02502 20.2499 0.148556 18.173 0.0208737 15.9856L0.00337585 15.4157V10.7237C-0.0183444 10.3676 0.0651054 10.0129 0.243348 9.70386L0.405829 9.46639L0.505817 9.3514L8.62736 0.59993C8.92082 0.283194 9.31463 0.0774642 9.74223 0.0174987L10.0022 8.69987e-07H39.9987ZM32.7045 21.1025L32.6745 21.1475C31.7837 22.3427 30.626 23.3132 29.2936 23.9815C27.9612 24.6499 26.4911 24.9977 25.0004 24.9971C23.5005 24.9985 22.0212 24.6472 20.6821 23.9716C19.3429 23.2959 18.1814 22.3148 17.2913 21.1075C16.402 22.3144 15.2414 23.2953 13.9031 23.971C12.5648 24.6466 11.0864 24.9981 9.58725 24.9971C8.41489 24.9971 7.29252 24.7871 6.25264 24.4021L6.25514 46.2446H10.0022V29.3765C10.0023 28.9231 10.1667 28.4851 10.465 28.1436C10.7633 27.8021 11.1752 27.5803 11.6245 27.5193L11.877 27.4968H23.1157C23.5687 27.4968 24.0064 27.6609 24.3478 27.9586C24.6893 28.2564 24.9113 28.6677 24.9729 29.1166L24.9904 29.3715V46.2396H43.7432V24.3996C41.7946 25.1237 39.6632 25.1933 37.6714 24.598C35.6797 24.0026 33.9361 22.7747 32.7045 21.1V21.1025ZM21.2384 31.2488H13.7518V46.2421H21.2384V31.2488ZM38.1364 27.4993C38.5894 27.4993 39.0271 27.6634 39.3686 27.9611C39.71 28.2589 39.9321 28.6702 39.9937 29.1191L40.0112 29.374V38.128C40.0112 38.5811 39.8471 39.0188 39.5493 39.3602C39.2515 39.7016 38.8402 39.9237 38.3914 39.9853L38.1364 40.0028H29.3849C28.9319 40.0028 28.4942 39.8387 28.1527 39.5409C27.8113 39.2432 27.5893 38.8318 27.5276 38.383L27.5101 38.128V29.374C27.5102 28.921 27.6742 28.4833 27.972 28.1419C28.2698 27.8004 28.6811 27.5784 29.13 27.5168L29.3849 27.4993H38.1364ZM36.2616 31.2488H31.2572V36.2532H36.2591V31.2488H36.2616ZM15.4141 12.5035H3.75543V15.4157L3.77293 15.8406L3.84292 16.4206L3.92542 16.8105L4.0504 17.2405L4.18538 17.6104L4.28537 17.8454C4.36286 18.0154 4.45035 18.1804 4.54284 18.3403L4.80031 18.7453L4.9353 18.9303L5.25776 19.3202L5.61272 19.6802L5.85269 19.8927L5.95768 19.9777C6.74508 20.6026 7.69497 21.0325 8.73735 21.185L9.1873 21.2325L9.58725 21.245C11.0647 21.2453 12.4871 20.6846 13.5669 19.6762C14.6467 18.6679 15.3033 17.2871 15.4041 15.8131L15.4191 15.4132V12.506L15.4141 12.5035ZM30.8248 12.5035H19.1661V15.4157C19.1661 18.3653 21.3609 20.8076 24.208 21.1925L24.598 21.2325L24.9979 21.245C26.4754 21.2453 27.8978 20.6846 28.9776 19.6762C30.0574 18.6679 30.714 17.2871 30.8148 15.8131L30.8298 15.4132V12.506L30.8248 12.5035ZM46.2404 12.5035H34.5793L34.5818 15.4157C34.5818 18.3653 36.7766 20.8076 39.6212 21.1925L40.0137 21.2325L40.4136 21.245C41.8235 21.245 43.1158 20.7451 44.1257 19.9102L44.3507 19.7152L44.6406 19.4327L45.0056 19.0078C45.1406 18.8353 45.2656 18.6578 45.3805 18.4678L45.6405 18.0029L45.798 17.6579L45.943 17.2705L46.018 17.0305L46.113 16.6505L46.183 16.2581L46.2279 15.8406L46.2429 15.4157V12.5035H46.2404ZM17.6563 3.74706H10.8196L6.17765 8.75397H16.119L17.6588 3.74706H17.6563ZM28.4225 3.74706H21.5783L20.0385 8.75397H29.9624L28.4225 3.74706V3.74706ZM39.1788 3.74706H32.3446L33.8844 8.75397H43.8232L39.1788 3.74706V3.74706Z" fill="white"/>
</svg>
