<svg width="40" height="40" viewBox="0 0 40 40" fill="none" xmlns="http://www.w3.org/2000/svg">
<path d="M40 5.50891C39.76 1.17048 27.3733 0 20 0C12.6267 0 0 1.18321 0 5.62341V34.3639C0 38.8041 12.5733 40 20 40C27.4267 40 40 38.8168 40 34.3639V5.50891ZM37.3333 15.1272C36.8933 16.2214 30.5867 18.2443 20 18.2443C15.0482 18.3649 10.1052 17.7817 5.33333 16.514V19.1603C10.1291 20.2996 15.0582 20.8469 20 20.7888C25.3333 20.7888 33.24 20.1781 37.3333 18.2443V24.8219C36.8933 25.916 30.5867 27.9389 20 27.9389C15.0456 28.043 10.1025 27.4427 5.33333 26.1578V28.8041C10.1291 29.9434 15.0582 30.4907 20 30.4326C25.3333 30.4326 33.24 29.8219 37.3333 27.888V34.3766C36.8667 35.4707 30.56 37.4936 20 37.4936C9.44 37.4936 3.06667 35.4199 2.66667 34.3639V5.6743C3.06667 4.63104 9.33333 2.54453 20 2.54453C30.36 2.54453 36.6133 4.49109 37.3333 5.5598C36.64 6.66667 30.3867 8.60051 20 8.60051C15.0484 8.71826 10.1058 8.13517 5.33333 6.87023V9.52926C10.1302 10.6614 15.059 11.2044 20 11.145C25.3333 11.145 33.24 10.5344 37.3333 8.60051V15.1272Z" fill="white"/>
</svg>
