<svg width="50" height="50" viewBox="0 0 50 50" fill="none" xmlns="http://www.w3.org/2000/svg">
<path d="M48.6791 0.935238C48.1657 0.46715 47.5467 0.160603 46.8878 0.048098C46.2289 -0.0644074 45.5545 0.0213214 44.9363 0.296196L2.27737 19.2396C1.58803 19.5512 1.00114 20.0861 0.594627 20.7732C0.188111 21.4603 -0.0188059 22.2672 0.00134341 23.0867C0.0214928 23.9062 0.267756 24.6996 0.707441 25.3615C1.14713 26.0235 1.75944 26.5227 2.46309 26.7928L11.6677 30.3076L16.6557 48.4469C16.6653 48.4836 16.6962 48.5072 16.7105 48.5412C16.7619 48.6859 16.8369 48.8191 16.9319 48.9341C17.0763 49.1114 17.2626 49.241 17.47 49.3086C17.4938 49.3191 17.5105 49.3426 17.5343 49.3479H17.5486L17.5557 49.3505C17.7399 49.3941 17.9313 49.3832 18.1105 49.3191C18.1295 49.3138 18.1486 49.3138 18.17 49.306C18.342 49.2396 18.4977 49.1302 18.6248 48.9864C18.639 48.9681 18.6629 48.9655 18.6771 48.9498L25.8509 40.2389L36.3198 49.1567C36.9555 49.704 37.7388 50 38.5459 50C40.2935 50 41.8006 48.6538 42.1602 46.776L49.9267 4.82449C50.0584 4.11231 50.012 3.37415 49.7923 2.68874C49.5725 2.00333 49.1878 1.39638 48.6791 0.932618V0.935238ZM19.2581 33.7516L17.5748 42.7532L14.0629 29.9776L31.4793 19.9991L19.5819 33.089C19.4171 33.2701 19.3045 33.5005 19.2581 33.7516ZM39.8268 46.2496C39.7821 46.487 39.6827 46.7079 39.538 46.8909C39.3933 47.0739 39.2083 47.2129 39.0007 47.2945C38.7981 47.3803 38.5788 47.4066 38.3642 47.3707C38.1496 47.3349 37.9472 47.2383 37.7769 47.0903L26.4366 37.4287C26.1995 37.2274 25.9022 37.1318 25.6039 37.1609C25.3056 37.19 25.0282 37.3418 24.8271 37.5858L19.8343 43.6384L21.5152 34.663L38.6316 15.8322C38.8321 15.611 38.954 15.3183 38.9755 15.0068C38.997 14.6954 38.9165 14.3857 38.7487 14.1338C38.5809 13.8819 38.3367 13.7042 38.0603 13.6329C37.7838 13.5616 37.4933 13.6013 37.2412 13.7449L12.5677 27.8824L3.24165 24.3153C2.99437 24.2254 2.77871 24.053 2.62466 23.8221C2.4706 23.5911 2.38583 23.3131 2.38213 23.0267C2.37027 22.7377 2.44046 22.4519 2.58295 22.2088C2.72545 21.9657 2.93319 21.7774 3.17736 21.67L45.8291 2.72665C46.0477 2.6245 46.2879 2.59146 46.5226 2.63125C46.7573 2.67104 46.9772 2.78208 47.1577 2.95188C47.3371 3.11161 47.4727 3.32307 47.5492 3.56263C47.6257 3.8022 47.6402 4.06045 47.591 4.30854L39.8268 46.2522V46.2496Z" fill="white"/>
</svg>
