<svg width="10" height="10" viewBox="0 0 10 10" fill="none" xmlns="http://www.w3.org/2000/svg">
<path d="M0 10L5 0L10 10H0ZM5 8.42105C5.12879 8.42105 5.23682 8.37053 5.32409 8.26947C5.41106 8.16877 5.45455 8.04386 5.45455 7.89474C5.45455 7.74561 5.41106 7.6207 5.32409 7.52C5.23682 7.41895 5.12879 7.36842 5 7.36842C4.87121 7.36842 4.76333 7.41895 4.67636 7.52C4.58909 7.6207 4.54545 7.74561 4.54545 7.89474C4.54545 8.04386 4.58909 8.16877 4.67636 8.26947C4.76333 8.37053 4.87121 8.42105 5 8.42105ZM4.54545 6.84211H5.45455V4.21053H4.54545V6.84211Z" fill="black"/>
</svg>
