<svg width="15" height="15" viewBox="0 0 15 15" fill="none" xmlns="http://www.w3.org/2000/svg">
<path d="M7.5 0C5.51088 0 3.60322 0.790176 2.1967 2.1967C0.790176 3.60322 0 5.51088 0 7.5C0 9.48912 0.790176 11.3968 2.1967 12.8033C3.60322 14.2098 5.51088 15 7.5 15C9.48912 15 11.3968 14.2098 12.8033 12.8033C14.2098 11.3968 15 9.48912 15 7.5C15 5.51088 14.2098 3.60322 12.8033 2.1967C11.3968 0.790176 9.48912 0 7.5 0V0ZM0.925 8.06667H3.01667C3.05 8.825 3.15583 9.57833 3.33333 10.3167H1.53333C1.19767 9.60907 0.991632 8.847 0.925 8.06667V8.06667ZM8.06667 3.56667V0.991667C8.86974 1.29685 9.52963 1.89135 9.91667 2.65833C10.0875 2.9475 10.2383 3.24833 10.3667 3.55833L8.06667 3.56667V3.56667ZM10.75 4.69167C10.9433 5.4275 11.0583 6.18167 11.0917 6.94167H8.06667V4.69167H10.75V4.69167ZM6.93333 0.991667V3.56667H4.63333C4.76188 3.25641 4.91226 2.95566 5.08333 2.66667C5.46872 1.89654 6.12883 1.29888 6.93333 0.991667V0.991667ZM6.93333 4.69167V6.94167H3.91667C3.95 6.18167 4.065 5.4275 4.25833 4.69167H6.93333V4.69167ZM3.01667 6.93333H0.925C0.991632 6.153 1.19767 5.39093 1.53333 4.68333H3.33333C3.15549 5.42137 3.04944 6.17488 3.01667 6.93333V6.93333ZM3.91667 8.06667H6.93333V10.3167H4.25833C4.06503 9.58089 3.9505 8.82666 3.91667 8.06667V8.06667ZM6.94167 11.4V13.975C6.1386 13.6698 5.4787 13.0753 5.09167 12.3083C4.92059 12.0193 4.77022 11.7186 4.64167 11.4083L6.94167 11.4V11.4ZM8.06667 13.975V11.4417H10.3667C10.2381 11.7519 10.0877 12.0527 9.91667 12.3417C9.52963 13.1086 8.86974 13.7031 8.06667 14.0083V13.975V13.975ZM8.06667 10.275V8.025H11.0833C11.0495 8.78499 10.935 9.53923 10.7417 10.275H8.06667ZM11.9917 8.025H14.0833C14.0167 8.80534 13.8107 9.5674 13.475 10.275H11.6667C11.8417 9.55 11.9475 8.81083 11.9833 8.06667L11.9917 8.025V8.025ZM11.9917 6.9C11.9535 6.15526 11.8447 5.41583 11.6667 4.69167H13.4667C13.8025 5.4 14.0083 6.16167 14.075 6.94167L11.9917 6.9ZM12.825 3.56667H11.3333C11.0634 2.80858 10.6722 2.09935 10.175 1.46667C11.212 1.93215 12.1127 2.65504 12.7917 3.56667H12.825V3.56667ZM4.825 1.46667C4.32777 2.09935 3.93656 2.80858 3.66667 3.56667H2.20833C2.88727 2.65504 3.78802 1.93215 4.825 1.46667V1.46667ZM2.2 11.4667H3.66667C3.93656 12.2247 4.32777 12.934 4.825 13.5667C3.78515 13.0942 2.88412 12.3625 2.20833 11.4417L2.2 11.4667V11.4667ZM10.1667 13.5667C10.6639 12.934 11.0551 12.2247 11.325 11.4667H12.7917C12.1086 12.3661 11.2082 13.0772 10.175 13.5333L10.1667 13.5667Z" fill="white"/>
</svg>
