<?xml version="1.0" encoding="UTF-8" standalone="no"?>
<!-- Created with Inkscape (http://www.inkscape.org/) -->

<svg
   xmlns:osb="http://www.openswatchbook.org/uri/2009/osb"
   xmlns:dc="http://purl.org/dc/elements/1.1/"
   xmlns:cc="http://creativecommons.org/ns#"
   xmlns:rdf="http://www.w3.org/1999/02/22-rdf-syntax-ns#"
   xmlns:svg="http://www.w3.org/2000/svg"
   xmlns="http://www.w3.org/2000/svg"
   xmlns:xlink="http://www.w3.org/1999/xlink"
   xmlns:sodipodi="http://sodipodi.sourceforge.net/DTD/sodipodi-0.dtd"
   xmlns:inkscape="http://www.inkscape.org/namespaces/inkscape"
   width="89.426979mm"
   height="53.742283mm"
   viewBox="0 0 89.426979 53.742283"
   version="1.1"
   id="svg843"
   inkscape:version="0.92.5 (2060ec1f9f, 2020-04-08)"
   sodipodi:docname="drawing.svg">
  <defs
     id="defs837">
    <linearGradient
       id="linearGradient2873"
       osb:paint="solid">
      <stop
         style="stop-color:#000000;stop-opacity:1;"
         offset="0"
         id="stop2871" />
    </linearGradient>
    <linearGradient
       id="linearGradient2867"
       osb:paint="solid">
      <stop
         style="stop-color:#34538a;stop-opacity:1;"
         offset="0"
         id="stop2865" />
    </linearGradient>
    <linearGradient
       inkscape:collect="always"
       xlink:href="#linearGradient2867"
       id="linearGradient2875"
       x1="62.631752"
       y1="136.7381"
       x2="152.05873"
       y2="136.7381"
       gradientUnits="userSpaceOnUse" />
  </defs>
  <sodipodi:namedview
     id="base"
     pagecolor="#ffffff"
     bordercolor="#666666"
     borderopacity="1.0"
     inkscape:pageopacity="0.0"
     inkscape:pageshadow="2"
     inkscape:zoom="0.35"
     inkscape:cx="433.33062"
     inkscape:cy="-178.9636"
     inkscape:document-units="mm"
     inkscape:current-layer="layer1"
     showgrid="false"
     inkscape:window-width="1920"
     inkscape:window-height="988"
     inkscape:window-x="0"
     inkscape:window-y="35"
     inkscape:window-maximized="1" />
  <metadata
     id="metadata840">
    <rdf:RDF>
      <cc:Work
         rdf:about="">
        <dc:format>image/svg+xml</dc:format>
        <dc:type
           rdf:resource="http://purl.org/dc/dcmitype/StillImage" />
        <dc:title />
      </cc:Work>
    </rdf:RDF>
  </metadata>
  <g
     inkscape:label="Layer 1"
     inkscape:groupmode="layer"
     id="layer1"
     transform="translate(-62.631753,-109.86695)">
    <path
       style="fill:url(#linearGradient2875);fill-opacity:1;stroke-width:0.08466667"
       d="m 105.24115,163.58942 c -8.639618,-0.45671 -15.010878,-1.56652 -21.547668,-3.75339 -6.21721,-2.07995 -11.33549,-4.92562 -14.47357,-8.04705 -4.33494,-4.31193 -6.84036,-10.4483 -6.56802,-16.08666 0.10568,-2.18787 0.66639,-4.52937 1.57131,-6.56167 0.72616,-1.63082 2.27781,-3.66973 4.28625,-5.63223 2.33095,-2.27763 4.82687,-4.05075 8.36836,-5.94494 1.22666,-0.65608 7.89705,-3.87449 8.03018,-3.87449 0.0305,0 0.0555,1.42019 0.0555,3.15598 v 3.15598 l -1.29117,0.5426 c -1.74357,0.73272 -4.60237,2.18748 -5.95312,3.02937 -2.91674,1.81791 -5.36371,4.06902 -6.74241,6.20273 -2.24112,3.46842 -2.66444,7.45466 -1.24529,11.72634 0.41175,1.23935 1.09805,2.68961 1.69119,3.57371 2.24551,3.34706 6.25493,6.22916 11.72046,8.42504 8.342,3.35155 19.922838,5.02188 29.513938,4.25684 1.9827,-0.15815 3.4256,-0.37593 6.14839,-0.92799 9.49063,-1.92427 16.13917,-4.3698 21.33642,-7.84816 3.32589,-2.22592 5.0196,-4.74819 5.0196,-7.4752 0,-1.02652 -0.13996,-1.63147 -0.58862,-2.54424 -1.14778,-2.33515 -3.84583,-3.8737 -7.37215,-4.20397 l -1.09857,-0.10289 v -2.60907 -2.60907 h 0.79973 c 1.11863,0 2.79256,0.14661 3.94161,0.34523 3.34718,0.57857 5.8091,1.82911 8.08864,4.10865 1.48592,1.48592 2.3829,3.03692 2.88382,4.98645 0.21829,0.84958 0.23958,1.06511 0.24258,2.45533 0.003,1.28644 -0.0276,1.66846 -0.19501,2.45075 -1.09949,5.13836 -5.5476,9.86967 -12.5017,13.29761 -6.85926,3.3812 -15.83354,5.56416 -26.289,6.39469 -1.14868,0.0913 -6.72507,0.17222 -7.83168,0.11372 z m 1.33333,-32.81893 0.0213,-20.7645 0.71966,-0.0654 c 1.14933,-0.10446 5.60495,-0.0958 6.90033,0.0134 3.18098,0.26816 6.44538,0.73687 8.80534,1.26429 l 1.016,0.22707 0.0223,2.92048 c 0.0123,1.60626 0.005,2.96507 -0.0157,3.01958 -0.0279,0.0727 -0.20315,0.057 -0.6573,-0.0589 -1.01397,-0.25864 -3.72181,-0.82739 -4.7892,-1.00591 -2.2342,-0.37366 -4.92821,-0.61286 -5.9687,-0.52996 l -0.40195,0.032 -0.0214,16.5607 -0.0214,16.56071 -2.75167,1.29017 c -1.51341,0.7096 -2.78031,1.29255 -2.81533,1.29546 -0.035,0.003 -0.0541,-9.33875 -0.0423,-20.75922 z m 6.92167,9.39827 v -2.41132 l 0.52917,-0.23342 c 0.29104,-0.12839 0.64347,-0.28416 0.78317,-0.34617 1.44374,-0.64076 6.67557,-2.94119 8.17033,-3.59247 1.04775,-0.45652 2.12516,-0.92896 2.39425,-1.04988 0.26908,-0.12092 0.5078,-0.21985 0.53048,-0.21985 0.0227,0 0.0311,1.07433 0.0188,2.3874 l -0.0225,2.3874 -3.72533,1.66354 c -2.04894,0.91496 -4.77309,2.13168 -6.05367,2.70383 -1.28058,0.57215 -2.39501,1.05872 -2.4765,1.08126 -0.1386,0.0383 -0.14817,-0.11467 -0.14817,-2.37032 z m 13.54667,-14.07611 c 0,-10.37722 0.0244,-13.843 0.0974,-13.843 0.0536,0 1.4253,0.40835 3.0483,0.90744 l 2.9509,0.90744 -0.0215,11.68098 -0.0215,11.68098 -3.0056,1.25458 c -1.65308,0.69002 -3.01515,1.25458 -3.02683,1.25458 -0.0117,0 -0.0212,-6.22935 -0.0212,-13.843 z m -1.91274,3.35888 c -0.3768,-0.17098 -0.85305,-0.38355 -1.05834,-0.47237 -0.42522,-0.18399 -8.71856,-3.86899 -9.81359,-4.36051 l -0.71966,-0.32303 -0.0225,-2.33998 c -0.0137,-1.42204 0.009,-2.33999 0.0572,-2.33999 0.0602,0 7.78026,3.5092 10.04065,4.56402 0.18627,0.0869 0.78635,0.35995 1.3335,0.60671 l 0.99484,0.44868 v 2.27029 c 0,1.24867 -0.0286,2.26732 -0.0635,2.26368 -0.0349,-0.004 -0.37178,-0.14652 -0.74857,-0.3175 z M 87.842152,115.68224 v -3.00208 l 0.5715,-0.16793 c 5.59678,-1.61742 9.28416,-2.09394 13.546658,-2.34683 l 0.9525,-0.0565 1.7e-4,0.92221 c 9e-5,0.50722 0.0251,1.80144 0.0554,2.87605 l 0.0553,1.95383 -1.13494,0.10617 c -4.068318,0.38058 -8.975738,1.31455 -12.988278,2.47191 -0.46566,0.13432 -0.89429,0.24445 -0.9525,0.24473 -0.0827,4.2e-4 -0.10583,-0.65605 -0.10583,-3.00155 z"
       id="path816"
       inkscape:connector-curvature="0"
       sodipodi:nodetypes="cscscccsscccsscscssscscccscssccccccccccccccccccccccccccccccscccsccccsccccssccccsccscccscccccccccccscccc" />
    <path
       style="fill:#34538a;fill-opacity:0;stroke-width:0.71428573"
       d="M 403.40666,493.75734 V 415.9002 h 14.95591 c 15.36634,0 30.02569,1.404 43.61552,4.17728 l 6.07143,1.23899 0.19612,11.10423 0.19612,11.10422 -9.12469,-2.00042 c -10.66476,-2.33805 -24.16958,-4.19573 -30.50184,-4.19573 h -4.46037 l -0.4734,40.17857 c -0.26038,22.09822 -0.47372,50.33303 -0.4741,62.74402 l -7e-4,22.56544 -9.46428,4.41217 c -5.20536,2.4267 -9.70536,4.40617 -10,4.39885 -0.29465,-0.007 -0.53572,-35.04905 -0.53572,-77.87048 z"
       id="path1397"
       inkscape:connector-curvature="0"
       transform="scale(0.26458333)" />
    <path
       style="fill:#34538a;fill-opacity:0;stroke-width:0.71428573"
       d="M 403.40666,493.75734 V 415.9002 h 14.95591 c 15.36634,0 30.02569,1.404 43.61552,4.17728 l 6.07143,1.23899 0.19612,11.10423 0.19612,11.10422 -9.12469,-2.00042 c -10.66476,-2.33805 -24.16958,-4.19573 -30.50184,-4.19573 h -4.46037 l -0.4734,40.17857 c -0.26038,22.09822 -0.47372,50.33303 -0.4741,62.74402 l -7e-4,22.56544 -9.46428,4.41217 c -5.20536,2.4267 -9.70536,4.40617 -10,4.39885 -0.29465,-0.007 -0.53572,-35.04905 -0.53572,-77.87048 z"
       id="path1399"
       inkscape:connector-curvature="0"
       transform="scale(0.26458333)" />
    <path
       style="fill:#34538a;fill-opacity:0;stroke-width:0.71428573"
       d="m 480.54952,476.32651 v -51.71654 l 8.03571,2.44074 c 4.41965,1.3424 9.40179,2.79586 11.07143,3.22991 l 3.03572,0.78917 v 44.06769 44.06768 l -10.67611,4.41895 c -5.87186,2.43042 -10.85401,4.41895 -11.07143,4.41895 -0.21743,0 -0.39532,-23.27244 -0.39532,-51.71655 z"
       id="path1401"
       inkscape:connector-curvature="0"
       transform="scale(0.26458333)" />
    <path
       style="fill:#34538a;fill-opacity:0;stroke-width:0.71428573"
       d="m 480.54952,476.32651 v -51.71654 l 8.03571,2.44074 c 4.41965,1.3424 9.40179,2.79586 11.07143,3.22991 l 3.03572,0.78917 v 44.06769 44.06768 l -10.67611,4.41895 c -5.87186,2.43042 -10.85401,4.41895 -11.07143,4.41895 -0.21743,0 -0.39532,-23.27244 -0.39532,-51.71655 z"
       id="path1403"
       inkscape:connector-curvature="0"
       transform="scale(0.26458333)" />
    <path
       style="fill:#34538a;fill-opacity:0;stroke-width:0.71428573"
       d="m 480.54952,476.32651 v -51.71654 l 8.03571,2.44074 c 4.41965,1.3424 9.40179,2.79586 11.07143,3.22991 l 3.03572,0.78917 v 44.06769 44.06768 l -10.67611,4.41895 c -5.87186,2.43042 -10.85401,4.41895 -11.07143,4.41895 -0.21743,0 -0.39532,-23.27244 -0.39532,-51.71655 z"
       id="path1405"
       inkscape:connector-curvature="0"
       transform="scale(0.26458333)" />
  </g>
</svg>
